<?xml version="1.0" encoding="UTF-8" standalone="no"?>
<!-- Created with Inkscape (http://www.inkscape.org/) -->

<svg
   width="512"
   height="512"
   viewBox="0 0 512 512"
   version="1.1"
   id="svg1"
   xml:space="preserve"
   inkscape:version="1.3 (0e150ed, 2023-07-21)"
   sodipodi:docname="prflow.svg"
   xmlns:inkscape="http://www.inkscape.org/namespaces/inkscape"
   xmlns:sodipodi="http://sodipodi.sourceforge.net/DTD/sodipodi-0.dtd"
   xmlns="http://www.w3.org/2000/svg"
   xmlns:svg="http://www.w3.org/2000/svg"><sodipodi:namedview
     id="namedview1"
     pagecolor="#ffffff"
     bordercolor="#000000"
     borderopacity="0.25"
     inkscape:showpageshadow="2"
     inkscape:pageopacity="0.0"
     inkscape:pagecheckerboard="0"
     inkscape:deskcolor="#d1d1d1"
     inkscape:document-units="px"
     inkscape:zoom="0.70238997"
     inkscape:cx="197.89577"
     inkscape:cy="317.48745"
     inkscape:window-width="1440"
     inkscape:window-height="847"
     inkscape:window-x="0"
     inkscape:window-y="25"
     inkscape:window-maximized="1"
     inkscape:current-layer="layer1" /><defs
     id="defs1" /><g
     inkscape:label="Layer 1"
     inkscape:groupmode="layer"
     id="layer1"><path
       style="fill:#e05765"
       d="m 278.8123,364.23489 c -2.80384,-0.44175 -6.73254,-1.34267 -8.73044,-2.00204 -4.5546,-1.50315 -13.74216,-11.45747 -17.31494,-18.75996 -2.34854,-4.80025 -2.55929,-6.17692 -2.17524,-14.20963 0.36208,-7.57309 0.82614,-9.5002 3.12378,-12.97217 2.95894,-4.47126 6.44952,-5.94604 10.58516,-4.47226 2.8805,1.0265 3.0862,2.53116 1.64891,12.06153 -0.74988,4.97234 -0.64369,5.34533 2.3838,8.37282 2.90214,2.90214 3.58809,3.12835 8.15539,2.68949 7.13159,-0.68526 12.92147,-6.66751 12.92147,-13.3508 0,-8.87839 -5.81401,-16.5054 -15.55452,-20.40493 -15.97818,-6.39674 -27.86355,-17.76081 -35.09448,-33.55523 -2.03246,-4.43948 -2.62501,-7.88156 -3.3859,-19.66837 -0.50727,-7.85793 -0.93193,-14.39965 -0.9437,-14.53715 -0.0118,-0.1375 -0.45034,-0.25 -0.97461,-0.25 -0.52426,0 -1.80193,1.91869 -2.83926,4.26375 -1.03733,2.34506 -3.99423,6.85201 -6.5709,10.01546 -2.57666,3.16345 -5.48583,7.06886 -6.46483,8.67869 -3.70327,6.08954 -14.98093,12.28456 -33.56513,18.43793 -11.48237,3.80191 -16.93085,6.62191 -23.25829,12.03797 -6.29471,5.38804 -7.36219,8.58838 -7.8519,23.54039 -0.36454,11.13015 -0.81227,13.98468 -3.10048,19.76726 -4.00024,10.1091 -5.93642,13.60591 -10.36993,18.72843 -2.21434,2.55847 -4.02607,4.97426 -4.02607,5.36842 0,1.55239 -13.59414,6.52235 -19.37495,7.08339 -14.22507,1.38059 -23.369676,-1.59347 -33.981542,-11.05168 -7.726466,-6.88648 -10.053267,-12.17134 -10.0654,-22.86151 -0.0077,-6.79525 0.424643,-9.33299 2.1472,-12.60318 2.486023,-4.71958 8.225472,-10.10388 11.699884,-10.9759 5.056599,-1.26912 9.379245,4.45156 6.657186,8.81027 -0.665607,1.06581 -1.235712,3.78683 -1.266901,6.04671 -0.120165,8.70699 10.677413,13.06686 16.914503,6.82977 3.96717,-3.96716 5.27002,-9.12731 5.27002,-20.87271 0,-11.64345 3.17744,-25.69001 7.94986,-35.14413 3.37691,-6.68963 11.09432,-15.51139 17.86852,-20.42549 5.92485,-4.29798 18.84133,-9.25619 30.5823,-11.73956 10.7067,-2.2646 22.05898,-7.5491 27.65701,-12.87438 3.24011,-3.08224 3.94782,-4.4045 3.74962,-7.00564 -0.13437,-1.76347 -0.54906,-3.39465 -0.92153,-3.62485 -0.37247,-0.2302 -5.11164,1.19225 -10.5315,3.16099 -12.11804,4.40184 -21.02202,5.28256 -30.6043,3.02715 -18.87652,-4.44302 -32.8834,-17.10178 -43.14459,-38.99206 -6.08545,-12.98214 -11.8771,-18.79506 -22.246611,-22.3283 -5.670687,-1.9322 -10.006255,-0.53668 -14.792818,4.76147 -3.915795,4.33432 -4.332775,6.55782 -2.055617,10.96136 1.985738,3.83999 4.326139,4.97998 10.223908,4.97998 5.270635,0 7.265741,1.22948 7.265741,4.4775 0,8.18471 -15.124765,13.37781 -24.514809,8.41718 -11.986646,-6.33238 -17.799595,-19.05357 -15.429119,-33.76544 1.318156,-8.18087 3.611698,-12.57627 10.373239,-19.87954 11.007474,-11.88939 30.241716,-17.09107 47.029146,-12.7185 14.78297,3.85047 24.24937,12.24196 36.01992,31.92984 7.44015,12.4447 11.90223,17.02407 20.2432,20.77531 6.59325,2.96523 17.18731,2.97013 22.87567,0.0106 4.01217,-2.08745 7.40276,-5.94507 7.40276,-8.42242 0,-0.68523 -2.23201,-5.98856 -4.96002,-11.78519 -2.72801,-5.79662 -6.15834,-14.74657 -7.62296,-19.88877 -2.46773,-8.66407 -2.62818,-10.38678 -2.18875,-23.5 0.52212,-15.58071 1.86629,-21.01963 8.48317,-34.325377 11.67629,-23.479612 37.09863,-39.266087 63.28856,-39.300219 24.26222,-0.03162 46.24775,8.373632 60.6424,23.184097 14.30298,14.716138 21.32828,32.810549 21.35005,54.989329 0.01,9.72347 -3.35352,20.8371 -10.10448,33.39153 -3.8175,7.0992 -4.88797,10.09367 -4.88797,13.67327 0,8.77811 8.43634,14.5191 19.81898,13.48695 12.66174,-1.14812 24.66995,-11.25555 32.65778,-27.48837 9.26002,-18.81816 26.02538,-28.06371 49.14247,-27.10047 11.35381,0.47308 17.73548,3.30016 26.24461,11.62634 7.65052,7.48604 10.32928,13.18595 10.90898,23.21237 0.48988,8.47293 -1.25258,14.39745 -6.75748,22.9761 -7.2326,11.27103 -22.52994,13.33164 -30.31203,4.08315 -4.82643,-5.73588 -2.49817,-9.68196 5.01307,-8.49647 5.62041,0.88705 10.66864,-2.73697 11.10141,-7.96947 0.25618,-3.09743 -0.2285,-4.41714 -2.5,-6.80711 -6.70258,-7.05215 -12.47559,-7.5407 -22.14332,-1.87393 -9.04208,5.30005 -11.34571,7.98453 -17.52325,20.42026 -3.66824,7.38439 -7.5793,13.32694 -12.68675,19.27651 -13.3124,15.50738 -23.29151,20.15105 -40.96447,19.06241 -8.75639,-0.5394 -10.19645,-0.94231 -18.3975,-5.14749 -4.89362,-2.50926 -9.11708,-4.34271 -9.38546,-4.07433 -0.26838,0.26837 0.16106,1.5145 0.9543,2.76916 0.79324,1.25467 1.98733,4.16055 2.65352,6.45752 1.3976,4.81876 4.90624,8.11091 12.40326,11.63796 6.11931,2.87889 9.29863,3.80699 24.27188,7.08538 14.84916,3.25123 20.75289,5.65726 28.86431,11.76346 13.19991,9.93678 23.05752,25.12363 27.69644,42.6698 1.80798,6.83843 2.10209,9.97699 1.63992,17.5 -0.71248,11.59764 -3.80078,21.65592 -8.13384,26.49108 -1.81185,2.0218 -4.00295,5.02601 -4.86911,6.67601 -3.346,6.37406 -9.02604,11.24887 -15.19736,13.04292 -15.01651,4.36542 -32.90892,-3.17542 -41.26617,-17.39182 -2.46066,-4.18579 -2.73419,-5.6015 -2.73419,-14.1511 0,-10.21436 1.15603,-13.75038 6.28932,-19.23754 2.9528,-3.15636 8.05488,-4.45139 11.10538,-2.81881 2.69941,1.44468 2.6772,4.36379 -0.0614,8.06791 -3.04104,4.11324 -2.79735,8.37279 0.68709,12.00976 2.12876,2.22194 3.76591,2.97868 6.44416,2.97868 7.06943,0 11.03542,-5.30894 11.03542,-14.7722 0,-8.4116 -2.39002,-14.39848 -8.3561,-20.93161 -6.21367,-6.80427 -15.26471,-11.28858 -30.1439,-14.93474 -14.75922,-3.61676 -28.17131,-10.4986 -37.77568,-19.38298 -9.98105,-9.23281 -12.42904,-12.89375 -18.74703,-28.03591 -6.30268,-15.10545 -6.83231,-15.79024 -9.78318,-12.64918 -5.53192,5.88846 -4.5728,21.05964 2.23808,35.40142 4.32582,9.10894 10.73715,16.02219 21.33709,23.00748 19.43959,12.81056 28.13312,27.15802 28.19807,46.537 0.0386,11.51924 -1.89234,17.72153 -7.42318,23.84351 -1.99018,2.2029 -4.3177,5.44796 -5.17226,7.21124 -1.46498,3.02283 -5.89865,6.44994 -12.99282,10.0431 -3.84887,1.94943 -14.15983,2.79565 -20.97698,1.72157 z M 232.20793,163.51773 c 3.26211,-2.05886 6.19414,-7.28893 6.19852,-11.05674 0.008,-6.60828 -9.57854,-13.43168 -16.44801,-11.70755 -1.38967,0.34878 -3.88153,2.17725 -5.53747,4.06325 -2.44747,2.78752 -3.01078,4.32136 -3.01078,8.19813 0,4.09505 0.47256,5.22706 3.34371,8.00989 5.27656,5.11425 10.07456,5.88825 15.45403,2.49302 z m 70.54333,-0.39519 c 2.99101,-2.35272 5.20806,-8.62229 4.3118,-12.19327 -0.92085,-3.66896 -4.5973,-7.83191 -8.27294,-9.36769 -3.93908,-1.64585 -7.4283,-0.62614 -11.73057,3.42823 -3.96062,3.73241 -4.88382,6.60195 -3.62637,11.27177 2.07968,7.72332 13.20058,11.67299 19.31808,6.86096 z m 15.10223,-46.16885 c 2.26706,-3.23669 2.02157,-10.31263 -0.4433,-12.7775 -2.65368,-2.65368 -7.28489,-2.54228 -10.39286,0.25 -3.80743,3.42069 -3.86729,8.09823 -0.15489,12.10398 3.20414,3.45733 8.71729,3.66976 10.99105,0.42352 z m -8.5865,-26.877426 c 4.11521,-1.434567 4.84753,-4.519389 2.39116,-10.072432 -4.06085,-9.180216 -13.42075,-14.91012 -18.70264,-11.449296 -2.13339,1.397855 -2.54507,2.432757 -2.54377,6.394708 0.002,6.340459 2.61522,11.200293 7.49845,13.945426 4.50452,2.53224 6.79787,2.770847 11.3568,1.181594 z M 281.51231,71.891829 c 1.86883,-1.256399 3.53769,-3.250941 3.70856,-4.432315 0.78244,-5.409523 -6.45656,-12.683323 -12.62263,-12.683323 -2.61283,0 -4.13329,0.774293 -6.31475,3.215776 -3.24015,3.626353 -3.55255,5.970029 -1.36073,10.208533 3.06816,5.933174 10.72177,7.636173 16.58955,3.691329 z"
       id="path180"
       inkscape:export-filename="../documents/logo.png"
       inkscape:export-xdpi="96"
       inkscape:export-ydpi="96" /><path
       style="fill:#fa2f43"
       d="m 201.33368,217.42619 c -0.0421,-0.4125 -0.22727,-1.5375 -0.41152,-2.5 -0.18425,-0.9625 0.0752,-1.75 0.57651,-1.75 0.50134,0 0.91152,1.125 0.91152,2.5 0,2.22244 -0.88204,3.6563 -1.07651,1.75 z"
       id="path173" /><path
       style="fill:#fa2f43"
       d="m 278.8123,364.23489 c -8.69461,-1.36987 -12.0544,-2.97956 -16.79312,-8.04563 -8.18363,-8.74896 -10.35423,-13.10999 -11.12386,-22.34935 -0.82039,-9.84864 0.40547,-15.26459 4.43022,-19.5731 3.24433,-3.47307 7.95017,-4.1625 10.16837,-1.48974 1.77593,2.13986 1.9002,3.52449 0.76842,8.56167 -1.54229,6.86422 -0.304,11.39515 3.62362,13.25893 5.18774,2.46174 8.96689,2.00678 13.04053,-1.56992 6.3451,-5.57107 7.66997,-10.16013 5.25771,-18.21154 -1.65752,-5.53232 -7.14755,-10.75443 -14.32852,-13.62927 -21.88392,-8.76105 -36.47329,-27.06359 -37.87188,-47.51075 -1.02772,-15.02507 -1.72878,-20.5 -2.62499,-20.5 -0.47026,0 -1.70375,1.91869 -2.74108,4.26375 -1.03733,2.34506 -3.99423,6.85201 -6.5709,10.01546 -2.57666,3.16345 -5.48583,7.06886 -6.46483,8.67869 -3.71153,6.10311 -14.97651,12.2831 -33.67579,18.47457 -16.0194,5.30415 -26.66715,12.62708 -29.60833,20.36295 -0.53809,1.41528 -1.1671,8.33644 -1.3978,15.38035 -0.35759,10.91796 -0.81397,13.80406 -3.09388,19.56568 -4.00024,10.1091 -5.93642,13.60591 -10.36993,18.72843 -2.21434,2.55847 -4.02607,5.0108 -4.02607,5.44963 0,0.43883 -3.69498,2.25799 -8.21106,4.04258 -7.77733,3.07331 -8.76778,3.22464 -18.75,2.86473 -9.401926,-0.33899 -11.129234,-0.70078 -16.010245,-3.3534 -8.18391,-4.4476 -17.565956,-14.0412 -19.022883,-19.45181 -1.646384,-6.1142 -1.655496,-18.94147 -0.01564,-22.02161 2.326857,-4.37053 9.217123,-10.88662 12.205918,-11.54307 3.84886,-0.84535 7.803905,1.73809 7.803905,5.09751 0,1.37958 -0.675,2.76735 -1.5,3.08394 -2.412532,0.92577 -1.997212,9.45081 0.596029,12.23432 4.169954,4.47592 10.990306,5.42043 15.204476,2.10557 3.68613,-2.89951 5.69467,-10.84117 5.72395,-22.63217 0.0272,-10.96936 0.9002,-15.80872 4.57219,-25.3461 5.1652,-13.41575 8.87658,-18.77618 18.76009,-27.09564 7.77493,-6.54455 16.49589,-10.21165 34.27614,-14.41286 10.69053,-2.52601 15.13247,-4.38764 24.06916,-10.08744 4.88413,-3.11509 7.14547,-5.98519 8.70523,-11.04868 0.77054,-2.50145 -2.19952,-6.30954 -3.40268,-4.36278 -0.38764,0.6272 -1.33475,1.26631 -2.10469,1.42023 -0.76994,0.15392 -2.74989,0.84648 -4.39989,1.53901 -13.91266,5.83935 -24.00607,7.19454 -34.75002,4.66571 -18.87652,-4.44302 -32.8834,-17.10178 -43.14459,-38.99206 -6.08545,-12.98214 -11.8771,-18.79506 -22.246609,-22.3283 -5.670687,-1.9322 -10.006255,-0.53668 -14.792818,4.76147 -3.915795,4.33432 -4.332775,6.55782 -2.055617,10.96136 1.985738,3.83999 4.326139,4.97998 10.223908,4.97998 5.270635,0 7.265741,1.22948 7.265741,4.4775 0,5.32403 -7.834549,10.46075 -16.015467,10.50054 -6.116614,0.0298 -12.481499,-3.50595 -17.679094,-9.82077 -6.226082,-7.56437 -7.713393,-15.41619 -5.182231,-27.35805 1.491633,-7.03743 3.788027,-11.37194 9.233635,-17.42877 14.407524,-16.02463 42.711412,-19.04841 61.521812,-6.57254 5.99311,3.97489 13.85792,13.00608 19.03797,21.86138 9.78845,16.73337 13.6832,20.86092 23.03861,24.4157 10.32374,3.92271 23.84788,1.80466 28.81749,-4.51318 2.44325,-3.10609 2.52345,-2.76079 -3.84646,-16.56181 -2.66546,-5.775 -6.03961,-14.68977 -7.4981,-19.81061 -2.44713,-8.59202 -2.61399,-10.36715 -2.16191,-23 0.43337,-12.11022 0.83023,-14.56162 3.44032,-21.2505 9.19428,-23.562182 20.86079,-36.758076 40.70986,-46.046577 10.31037,-4.824807 18.99788,-6.195239 34.77343,-5.485416 12.95818,0.583054 14.26338,0.838244 24.42056,4.774652 12.74209,4.938188 23.65055,11.951597 29.73337,19.116568 13.78805,16.240983 18.56544,28.278573 19.32846,48.701883 0.42152,11.28282 0.22672,13.25668 -2.00048,20.27083 -1.35711,4.27395 -4.41034,10.98638 -6.78495,14.9165 -3.46803,5.73977 -4.45154,8.44084 -4.99884,13.72861 -0.89254,8.6233 0.53652,11.44223 7.42708,14.65044 15.78299,7.34849 35.37477,-3.71671 46.15253,-26.06638 8.31891,-17.25079 24.27117,-26.5 45.705,-26.5 12.23663,0 17.99142,2.30773 27.07523,10.85746 9.2883,8.74219 11.73264,13.87614 11.73264,24.64254 0,6.30069 -0.49958,9.07286 -2.35193,13.05079 -4.45712,9.5717 -7.40782,13.30368 -12.5981,15.93379 -8.18964,4.15001 -16.00973,2.89403 -21.32712,-3.42533 -4.82643,-5.73588 -2.49817,-9.68196 5.01307,-8.49647 5.62041,0.88705 10.66864,-2.73697 11.10141,-7.96947 0.25618,-3.09743 -0.2285,-4.41714 -2.5,-6.80711 -6.49479,-6.83353 -12.22181,-7.45012 -21.55389,-2.32056 -8.75712,4.81351 -11.98447,8.53046 -18.10515,20.85174 -3.67586,7.39973 -7.58347,13.33818 -12.69428,19.29166 -13.30286,15.49626 -23.34302,20.17582 -40.84559,19.03746 -10.31935,-0.67116 -12.43514,-1.57485 -23.61888,-10.088 -3.3,-2.51199 -6.675,-4.44893 -7.5,-4.30432 -4.54143,0.79604 0.92302,13.82979 8.77065,20.91965 5.27345,4.76425 16.38173,9.14967 30.85865,12.18263 21.56892,4.51877 28.13515,7.72456 39.64567,19.35594 10.49225,10.60242 15.53956,19.42639 19.70036,34.44114 4.42577,15.97092 1.43655,38.64184 -5.97936,45.34882 -1.21483,1.09871 -3.03222,3.57264 -4.03864,5.49764 -3.50618,6.70633 -9.0313,11.58888 -15.11557,13.35763 -3.10727,0.9033 -7.38032,1.63703 -9.49567,1.6305 -4.54325,-0.014 -12.62756,-2.04486 -16.84609,-4.23186 -4.94665,-2.56449 -12.35312,-9.65044 -15.26581,-14.60517 -2.46066,-4.18579 -2.73419,-5.6015 -2.73419,-14.1511 0,-10.21436 1.15603,-13.75038 6.28932,-19.23754 2.9528,-3.15636 8.05488,-4.45139 11.10538,-2.81881 2.65656,1.42175 2.68543,4.35266 0.0776,7.8799 -1.11521,1.50841 -2.28513,4.32914 -2.59981,6.26828 -0.50807,3.1309 -0.16513,3.88308 3.06247,6.71695 4.23857,3.72151 7.5663,4.03856 11.67573,1.11238 4.17299,-2.97143 5.88928,-6.96202 5.88928,-13.69336 0,-8.4116 -2.39002,-14.39848 -8.3561,-20.93161 -6.21367,-6.80427 -15.26471,-11.28858 -30.1439,-14.93474 -14.75922,-3.61676 -28.17131,-10.4986 -37.77568,-19.38298 -4.27663,-3.95603 -9.05586,-9.05706 -10.62052,-11.33562 -3.36239,-4.89656 -12.1038,-24.97869 -12.1038,-27.80673 0,-2.83132 -1.8277,-5.83612 -3.54988,-5.83612 -2.1315,0 -5.22528,5.59998 -6.50839,11.78068 -2.40665,11.59278 4.97737,31.90934 15.23337,41.91343 2.9287,2.85676 8.75083,7.46064 12.93808,10.23083 18.67093,12.35229 27.88682,27.77229 27.88682,46.66013 0,10.07755 -2.18125,16.65939 -7.45583,22.49772 -1.99018,2.2029 -4.3177,5.44796 -5.17226,7.21124 -1.46498,3.02283 -5.89865,6.44994 -12.99282,10.0431 -3.84887,1.94943 -14.15983,2.79565 -20.97698,1.72157 z m -137.719,-74.2462 c -0.31922,-0.79773 -0.55618,-0.56077 -0.60416,0.60417 -0.0434,1.05417 0.19292,1.64479 0.52522,1.3125 0.33229,-0.33229 0.36781,-1.19479 0.0789,-1.91667 z m 93.41895,-127.41028 c 8.14704,-7.80536 4.81136,-19.04598 -6.65014,-22.40975 -8.33145,-2.44515 -14.45192,3.24114 -14.45192,13.42671 0,3.50886 0.59828,4.75721 3.75,7.82464 6.44374,6.27141 11.65229,6.61912 17.35206,1.1584 z m 70.01039,-0.20204 c 3.46706,-3.88031 4.55905,-10.00096 2.49604,-13.99037 -2.57521,-4.97991 -7.22416,-8.20981 -11.81679,-8.20981 -3.44722,0 -4.70205,0.64719 -8.37369,4.31883 -3.97547,3.97547 -4.28534,4.65546 -3.8976,8.55297 0.58948,5.92545 2.41321,9.11655 6.47959,11.33777 5.11195,2.79236 11.59192,1.93077 15.11245,-2.00939 z m 12.48785,-42.96549 c 4.0788,-2.72349 4.63956,-12.08574 0.94515,-15.78014 -5.34687,-5.34688 -14.62463,-1.64471 -14.8391,5.92134 -0.0748,2.63748 0.41818,4.1143 1.59269,4.77159 0.93553,0.52355 1.70096,1.58218 1.70096,2.35252 0,2.7848 7.59198,4.74339 10.6003,2.73469 z m -4.49613,-30.338856 c 1.60134,-1.601346 1.95709,-2.839512 1.48872,-5.181385 -1.55131,-7.756549 -9.50361,-16.299254 -15.59289,-16.750548 -6.98086,-0.517372 -9.00064,1.246322 -8.99845,7.857528 0.003,9.777149 6.19408,16.178572 15.64633,16.178572 4.1071,0 5.84159,-0.489473 7.45629,-2.104167 z M 281.91019,72.88482 c 3.37833,-1.907465 4.04763,-2.827248 4.30647,-5.918166 0.25425,-3.03614 -0.31822,-4.351142 -3.35983,-7.717842 -6.54179,-7.240983 -14.32625,-7.598728 -18.44244,-0.847547 -2.7144,4.452018 -2.51365,8.016029 0.66424,11.792734 4.6209,5.491626 10.27118,6.394924 16.83156,2.690821 z"
       id="path170"
       inkscape:export-filename="octoflo.png"
       inkscape:export-xdpi="96"
       inkscape:export-ydpi="96" /><path
       style="fill:#ef1a35"
       d="m 206.41019,111.17619 c 0,-0.55 0.45,-1 1,-1 0.55,0 1,0.45 1,1 0,0.55 -0.45,1 -1,1 -0.55,0 -1,-0.45 -1,-1 z"
       id="path132" /><path
       style="fill:#ef1a35"
       d="m 267.6962,229.67619 c 0.008,-2.75 0.20172,-3.75631 0.43157,-2.23625 0.22985,1.52007 0.22371,3.77007 -0.0137,5 -0.23736,1.22994 -0.42542,-0.0137 -0.41792,-2.76375 z"
       id="path126" /><path
       style="fill:#ef1a35"
       d="m 272.68537,251.95036 c -2.6933,-3.39836 -6.08178,-14.78248 -4.39608,-14.76932 0.70653,0.006 6.25802,15.19136 5.74211,15.70727 -0.18491,0.18492 -0.79063,-0.23716 -1.34603,-0.93795 z"
       id="path125" /><circle
       style="fill:#000000;fill-opacity:1;stroke-width:7.4948;stroke-linecap:round;stroke-linejoin:round"
       id="path183"
       cx="225.38268"
       cy="154.03123"
       r="8.6230431" /><circle
       style="fill:#000000;fill-opacity:1;stroke-width:7.4948;stroke-linecap:round;stroke-linejoin:round"
       id="circle184"
       cx="294.70517"
       cy="154.03123"
       r="8.6230431" /><rect
       style="fill:#fa2f43;fill-opacity:1;stroke-width:7.4948;stroke-linecap:round;stroke-linejoin:round"
       id="rect184"
       width="90.63588"
       height="19.155006"
       x="127.87292"
       y="386.90695"
       ry="9.5775032" /><rect
       style="fill:#fa2f43;fill-opacity:1;stroke-width:7.4948;stroke-linecap:round;stroke-linejoin:round"
       id="rect185"
       width="49.055496"
       height="19.155003"
       x="300.73514"
       y="385.50534"
       ry="9.5775013" /><rect
       style="fill:#fa2f43;fill-opacity:1;stroke-width:7.4948;stroke-linecap:round;stroke-linejoin:round"
       id="rect186"
       width="49.055496"
       height="19.155003"
       x="375.95358"
       y="386.43973"
       ry="9.5775013" /><rect
       style="fill:#fa2f43;fill-opacity:1;stroke-width:7.4948;stroke-linecap:round;stroke-linejoin:round"
       id="rect187"
       width="90.63588"
       height="19.155006"
       x="219.04529"
       y="419.14343"
       ry="9.5775032" /><rect
       style="fill:#fa2f43;fill-opacity:1;stroke-width:7.4948;stroke-linecap:round;stroke-linejoin:round"
       id="rect188"
       width="49.055496"
       height="19.155003"
       x="336.70917"
       y="420.07779"
       ry="9.5775013" /><rect
       style="fill:#fa2f43;fill-opacity:1;stroke-width:7.4948;stroke-linecap:round;stroke-linejoin:round"
       id="rect189"
       width="49.055496"
       height="19.155003"
       x="287.18646"
       y="454.65027"
       ry="9.5775013" /><path
       style="fill:none;fill-opacity:1;stroke:#fa2f43;stroke-width:19.295;stroke-linecap:round;stroke-linejoin:round;stroke-dasharray:none;stroke-opacity:1;paint-order:stroke markers fill"
       d="m 96.509295,429.6002 h 45.113565 45.11357 l 1.99397,0.99699 7.97588,32.65125 1.74473,1.49548 h 59.07135"
       id="path195"
       sodipodi:nodetypes="ccccccc"
       inkscape:export-filename="../documents/logo.png"
       inkscape:export-xdpi="96"
       inkscape:export-ydpi="96" /></g></svg>
